<?xml version="1.0" standalone="no"?><!DOCTYPE svg PUBLIC "-//W3C//DTD SVG 1.1//EN" "http://www.w3.org/Graphics/SVG/1.1/DTD/svg11.dtd"><svg t="1618314430045" class="icon" viewBox="0 0 1041 1024" version="1.1" xmlns="http://www.w3.org/2000/svg" p-id="6326" xmlns:xlink="http://www.w3.org/1999/xlink" width="203.3203125" height="200"><defs><style type="text/css"></style></defs><path d="M902.679822 415.585519a104.476716 104.476716 0 0 0 12.396383 0.743783 123.963831 123.963831 0 0 0 122.996913-113.055013 125.377018 125.377018 0 0 0-27.272043-91.733235 121.484554 121.484554 0 0 0-83.402865-45.370762 104.476716 104.476716 0 0 0-12.396383-0.743783 123.963831 123.963831 0 0 0-122.996913 113.055013 125.426604 125.426604 0 0 0 24.941523 88.01432l-161.004224 231.316508a142.806333 142.806333 0 0 0-25.362999-5.454408 207.986515 207.986515 0 0 0-12.396383-0.495856 121.261419 121.261419 0 0 0-74.055993 25.536549l-152.054034-110.327809a119.74906 119.74906 0 0 0 2.479276-12.892238 125.972045 125.972045 0 0 0-27.272043-91.981163 123.443183 123.443183 0 0 0-83.402865-45.370762c-4.165185-0.247928-8.280784-0.495855-12.396383-0.495855a123.740696 123.740696 0 0 0-122.97212 112.807086 125.550568 125.550568 0 0 0 14.057499 71.651094l-88.411005 107.600605V40.22304a37.189149 37.189149 0 1 0-74.204749 0V986.810851a37.189149 37.189149 0 0 0 36.74288 37.189149h942.844103a37.189149 37.189149 0 0 0 0-74.378298H73.386588l0.71899-183.714397 141.789829-172.557653a123.765489 123.765489 0 0 0 43.263377 13.140166c4.165185 0.247928 8.280784 0.495855 12.396383 0.495856a122.377094 122.377094 0 0 0 84.295405-33.470235l145.037682 104.873401a127.657953 127.657953 0 0 0-5.652751 26.280332 125.972045 125.972045 0 0 0 27.272043 91.981163 123.467975 123.467975 0 0 0 83.402865 45.370762 103.856897 103.856897 0 0 0 12.396384 0.495855 123.765489 123.765489 0 0 0 122.996912-112.807086 125.922459 125.922459 0 0 0-24.792766-88.262247l160.979431-231.068581a121.236626 121.236626 0 0 0 25.18945 5.206481z m-631.099862 116.278073c-1.636323 0-3.297438-0.247928-4.958553-0.247927a50.254937 50.254937 0 0 1 4.958553-100.162775 33.767747 33.767747 0 0 1 4.958553 0.247927 50.254937 50.254937 0 0 1-4.958553 100.162775z m643.372281-291.067074a33.891711 33.891711 0 0 1 4.958553 0.247928 50.10618 50.10618 0 0 1-4.958553 99.914847 33.891711 33.891711 0 0 1-4.958553-0.247928 50.10618 50.10618 0 0 1 4.859382-99.914847zM618.282002 767.394871a33.891711 33.891711 0 0 1-4.958553-0.247928 50.254937 50.254937 0 0 1 4.958553-100.162775c1.661115 0 3.322231 0.247928 4.958553 0.247927a50.254937 50.254937 0 0 1-4.958553 100.162776z" p-id="6327" fill="#1296db"></path></svg>