<?xml version="1.0" standalone="no"?><!DOCTYPE svg PUBLIC "-//W3C//DTD SVG 1.1//EN" "http://www.w3.org/Graphics/SVG/1.1/DTD/svg11.dtd"><svg t="1625042766355" class="icon" viewBox="0 0 1024 1024" version="1.1" xmlns="http://www.w3.org/2000/svg" p-id="6295" xmlns:xlink="http://www.w3.org/1999/xlink" width="200" height="200"><defs><style type="text/css"></style></defs><path d="M439.7 609.3c-6.1 0-12.3-2.3-17-7-9.4-9.4-9.4-24.6 0-33.9l512-512c9.4-9.4 24.6-9.4 33.9 0 9.4 9.4 9.4 24.6 0 33.9l-512 512c-4.6 4.6-10.7 7-16.9 7z" fill="#515151" p-id="6296"></path><path d="M472.2 976.7c-53.2 0-105.3-9.9-155.1-29.5-51.2-20.1-97.3-49.5-137-87.2-41.1-39.1-73.6-85.5-96.4-137.9C60.9 669.7 49 614.3 48.3 557.6c-0.6-54.8 9.3-108.5 29.4-159.7 20.1-51.2 49.5-97.3 87.2-137 39.1-41.1 85.5-73.6 137.9-96.4 53.7-23.4 110.7-35.3 169.3-35.3 58.6 0 115.5 11.9 169.3 35.3 12.2 5.3 17.7 19.4 12.4 31.6-5.3 12.1-19.4 17.7-31.6 12.4-95.4-41.6-204.8-41.6-300.2 0C132.1 291.3 44.9 513.1 127.7 703c40.1 92 113.6 162.9 207 199.6 93.4 36.7 195.5 34.8 287.5-5.3 92-40.1 162.9-113.6 199.6-207 36.7-93.4 34.8-195.5-5.3-287.5-5.3-12.2 0.3-26.3 12.4-31.6 12.2-5.3 26.3 0.3 31.6 12.4 22.8 52.4 34.7 107.8 35.4 164.5 0.6 54.8-9.3 108.5-29.4 159.7-20.1 51.2-49.5 97.3-87.2 137-39.1 41.1-85.5 73.6-137.9 96.4-52.4 22.8-107.8 34.7-164.5 35.4-1.6 0.1-3.2 0.1-4.7 0.1z" fill="#515151" p-id="6297"></path></svg>