<?xml version="1.0" standalone="no"?><!DOCTYPE svg PUBLIC "-//W3C//DTD SVG 1.1//EN" "http://www.w3.org/Graphics/SVG/1.1/DTD/svg11.dtd"><svg t="1618314378861" class="icon" viewBox="0 0 1024 1024" version="1.1" xmlns="http://www.w3.org/2000/svg" p-id="5410" xmlns:xlink="http://www.w3.org/1999/xlink" width="200" height="200"><defs><style type="text/css"></style></defs><path d="M512 96c229.76 0 416 186.24 416 416S741.76 928 512 928 96 741.76 96 512 282.24 96 512 96z m0 64c-194.41 0-352 157.59-352 352s157.59 352 352 352 352-157.59 352-352-157.59-352-352-352z m105.387 117.035l45.226 45.248-136.661 136.682h156.715v64H544v81.942h138.667v64H544v100.8h-64v-100.8H341.333v-64H480v-81.942H341.333v-64h156.715L361.365 322.283l45.27-45.227L512 382.4l105.387-105.387z" fill="#1677FF" p-id="5411"></path></svg>