<?xml version="1.0" standalone="no"?><!DOCTYPE svg PUBLIC "-//W3C//DTD SVG 1.1//EN" "http://www.w3.org/Graphics/SVG/1.1/DTD/svg11.dtd"><svg t="1624882252545" class="icon" viewBox="0 0 1024 1024" version="1.1" xmlns="http://www.w3.org/2000/svg" p-id="5109" xmlns:xlink="http://www.w3.org/1999/xlink" width="200" height="200"><defs><style type="text/css"></style></defs><path d="M981.737401 435.219371L558.429727 18.925867a66.55781 66.55781 0 0 0-92.976141 0L407.2923 76.114385a38.091547 38.091547 0 0 0-14.489123-2.867105H186.01318A85.501187 85.501187 0 0 0 100.61439 158.748467v195.270375a38.142745 38.142745 0 0 0 5.119831 18.738584L42.145913 435.219371A65.021861 65.021861 0 0 0 27.400798 506.38503a65.789836 65.789836 0 0 0 61.437979 40.958652h20.991309v376.717206A100.041509 100.041509 0 0 0 209.564405 1024h604.754504a100.041509 100.041509 0 0 0 99.939112-99.939112V547.343682h20.991309a65.789836 65.789836 0 0 0 61.437979-40.958652 65.021861 65.021861 0 0 0-14.949908-71.165659zM511.941657 81.029424l396.172566 389.414388H115.769091zM177.51426 158.748467a8.601317 8.601317 0 0 1 8.49892-8.498921h145.966398L177.51426 302.10375z m358.797795 784.716583v-218.104825a1.279958 1.279958 0 0 1 1.126363-1.177561h84.784411a1.331156 1.331156 0 0 1 1.177561 1.177561v218.002428a1.331156 1.331156 0 0 1-1.177561 1.177561H537.540815a1.279958 1.279958 0 0 1-1.22876-1.177561z m301.097294-19.301765a23.346432 23.346432 0 0 1-23.09044 23.039242h-114.223442v-221.842302a78.179828 78.179828 0 0 0-78.077432-78.077431h-84.47722a78.12863 78.12863 0 0 0-78.026233 78.077431V947.10013H209.564405a23.346432 23.346432 0 0 1-23.09044-23.039242V547.343682h650.935384z" p-id="5110"></path></svg>